<?xml version="1.0" encoding="UTF-8"?>
<svg xmlns="http://www.w3.org/2000/svg" width="255.711" height="165.948">
  <g data-name="Logo right aligned">
    <g data-name="Group 465">
      <path fill="#fff" d="M124.524 1.823h127.793v49.47H124.524z" data-name="Rectangle 514"></path>
      <g data-name="Group 464">
        <path fill="#1c5faa" d="M250.746 6.349 247.98 14.9a21.546 21.546 0 0 0-9.555-1.949c-4.589 0-8.3.691-8.3 4.149 0 6.1 16.783 3.834 16.783 16.909 0 11.88-11.063 14.96-21.121 14.96a50.142 50.142 0 0 1-13.389-2.2l2.7-8.737c2.263 1.509 6.852 2.451 10.623 2.451 3.583 0 9.24-.691 9.24-5.092 0-6.915-16.783-4.337-16.783-16.469 0-11.126 9.806-14.458 19.3-14.458 5.343 0 10.372.566 13.263 1.886m-33.248-1.196-8.989 43h-11.566l3.834-18.418h-13.7l-3.834 18.418h-11.569l8.989-43h11.566l-3.394 16.469h13.7l3.394-16.469Zm-41.173 0-9.177 43h-14.39l-9.052-29.8h-.126l-6.034 29.8h-10.879l9.24-43h14.458l8.863 29.858h.126l6.1-29.858ZM255.712 0H122.953v53.43h132.759Z" data-name="Path 701"></path>
      </g>
    </g>
    <g data-name="Group 466">
      <path fill="#020203" d="M64.179 95.483a27.856 27.856 0 0 1-5.972.817c-8.989 0-14.458-4.652-14.458-13.138 0-8.926 5.406-14.08 14.458-14.08a18.147 18.147 0 0 1 5.972 1.069l-.377 4.463a11.15 11.15 0 0 0-5.72-1.383c-5.343 0-8.8 4.023-8.8 9.555s3.457 9.366 8.926 9.366a15.291 15.291 0 0 0 5.783-1.069Z" data-name="Path 702"></path>
      <path fill="#020203" d="M80.396 95.861v-11c0-3.52-1.069-4.966-3.269-4.966-2.954 0-4.463 2.7-4.463 6.537v9.366h-5.028V67.511h5.029v11.5h.063a7.321 7.321 0 0 1 6.1-3.08c4.463 0 6.6 3.143 6.6 7.606v12.32Z" data-name="Path 703"></path>
      <path fill="#020203" d="M106.232 94.792a13.39 13.39 0 0 1-6.663 1.571c-6.475 0-10.183-3.709-10.183-10.057 0-5.406 2.829-10.246 8.989-10.246 6.6 0 9.24 4.086 9.24 11.755H94.226c.251 3.08 2.326 4.9 5.594 4.9a13.023 13.023 0 0 0 6.412-1.949v4.023Zm-3.394-10.5c-.189-2.766-1.509-4.589-4.149-4.589-2.514 0-4.212 1.634-4.463 4.589Z" data-name="Path 704"></path>
      <path fill="#020203" d="M110.881 91.334a10.78 10.78 0 0 0 4.966 1.257c1.383 0 3.332-.5 3.332-2.389 0-1.634-1.571-2.137-3.646-2.7-3.394-.88-5.154-2.326-5.154-5.532 0-3.9 3.269-6.035 7.669-6.035a21.849 21.849 0 0 1 5.469.691l-.314 3.834a11.824 11.824 0 0 0-4.463-.817c-1.76 0-3.017.691-3.017 2.137 0 1.069 1.069 1.634 3.332 2.263 3.646 1.006 5.406 2.64 5.406 5.909 0 4.274-3.646 6.349-8.172 6.349a22.847 22.847 0 0 1-5.72-.817Z" data-name="Path 705"></path>
      <path fill="#020203" d="M139.924 95.861a12.762 12.762 0 0 1-3.709.44c-4.086 0-6.16-2.577-6.16-6.286v-9.869h-3.771v-3.709h3.709v-3.9l5.029-1.634v5.532h4.462v3.709h-4.4v8.989c0 2.011.629 3.269 2.389 3.269a4.64 4.64 0 0 0 2.263-.5Z" data-name="Path 706"></path>
      <path fill="#020203" d="M158.593 94.792a13.39 13.39 0 0 1-6.663 1.571c-6.474 0-10.183-3.709-10.183-10.057 0-5.406 2.829-10.246 8.989-10.246 6.6 0 9.24 4.086 9.24 11.755h-13.452c.251 3.08 2.326 4.9 5.594 4.9a13.023 13.023 0 0 0 6.412-1.949v4.023Zm-3.394-10.5c-.189-2.766-1.509-4.589-4.149-4.589-2.514 0-4.212 1.634-4.463 4.589Z" data-name="Path 707"></path>
      <path fill="#020203" d="M164.125 95.861V76.437h4.463v4.4h.063c.314-2.012 2.389-4.84 5.343-4.84a7.666 7.666 0 0 1 1.509.126v5.092a5.336 5.336 0 0 0-2.263-.44c-1.886 0-4.086 1.006-4.086 7.04v7.982h-5.029Z" data-name="Path 708"></path>
      <path fill="#020203" d="M180.532 95.861V80.146h-3.709v-3.712h3.709v-2.766c0-3.269 1.7-6.537 6.286-6.537a16.548 16.548 0 0 1 3.646.44l-.44 4.212a3.777 3.777 0 0 0-2.2-.691c-1.446 0-2.2 1.132-2.2 2.954v2.388h4.4v3.709h-4.4v15.715Zm12.886-22.944v-4.84h5.029v4.84Zm0 22.944V76.434h5.029v19.423Z" data-name="Path 709"></path>
      <path fill="#020203" d="M219.378 94.792a13.39 13.39 0 0 1-6.663 1.571c-6.474 0-10.183-3.709-10.183-10.057 0-5.406 2.829-10.246 8.989-10.246 6.6 0 9.24 4.086 9.24 11.755h-13.452c.251 3.08 2.326 4.9 5.594 4.9a13.023 13.023 0 0 0 6.412-1.949v4.023Zm-3.394-10.5c-.189-2.766-1.509-4.589-4.149-4.589-2.514 0-4.212 1.634-4.463 4.589Z" data-name="Path 710"></path>
      <path fill="#020203" d="M224.91 95.861V67.574h5.029v28.287Z" data-name="Path 711"></path>
      <path fill="#020203" d="M248.231 95.861v-2.2h-.063a7.22 7.22 0 0 1-5.972 2.64c-5.909 0-8.172-4.84-8.172-10.246 0-5.909 2.577-10.12 8.172-10.12a6.927 6.927 0 0 1 5.783 2.7h.063V67.511h5.029v28.287h-4.84Zm-.189-9.743c0-2.7-1.257-6.16-4.526-6.16-3.08 0-4.212 3.143-4.212 6.16 0 2.766 1.006 6.286 4.274 6.286 3.333-.001 4.465-3.458 4.465-6.287Z" data-name="Path 712"></path>
      <path fill="#020203" d="m16.469 134.205-3.08-7.92c-.754-2.011-1.257-3.017-3.709-3.017H7.92v10.938H2.64v-26.339h8.235c8.549 0 9.869 3.583 9.869 7.1a6.009 6.009 0 0 1-5.404 6.1v.063c1.131.063 2.137 1.069 2.892 2.954l4.086 10.057h-5.849Zm-6.474-15.086c4.526 0 5.28-1.949 5.28-3.646 0-1.383-.44-3.457-5.029-3.457H7.983v7.1Z" data-name="Path 713"></path>
      <path fill="#020203" d="M34.572 134.707c-6.286 0-10.12-4.274-10.12-10.057 0-6.223 4.212-10.309 10.12-10.309s10.18 4.023 10.18 10.309c0 5.783-3.894 10.057-10.18 10.057Zm4.9-10.686c0-3.08-1.634-5.783-4.9-5.783-3.143 0-4.84 2.7-4.84 5.783 0 4.086 1.571 6.726 4.84 6.726s4.903-2.514 4.903-6.726Z" data-name="Path 714"></path>
      <path fill="#020203" d="M48.088 138.353a8.045 8.045 0 0 0 2.577.314 3.168 3.168 0 0 0 3.332-3.457l-7.418-20.429h5.594l4.652 14.206h.063l4.652-14.206h5.154l-8.172 21.561c-1.446 3.834-3.143 6.223-7.292 6.223a14 14 0 0 1-3.52-.5Z" data-name="Path 715"></path>
      <path fill="#020203" d="M81.529 134.204c-.126-.691-.189-2.011-.251-2.892h-.063a6.884 6.884 0 0 1-5.972 3.332c-3.52 0-6.789-2.137-6.789-5.783 0-3.332 1.949-6.663 9.492-6.663h3.143v-.063c0-3.269-1.634-4.086-4.4-4.086a9.9 9.9 0 0 0-5.972 2.137l-.126-4.337a17.589 17.589 0 0 1 6.726-1.446c5.783 0 8.36 2.326 8.36 8.172v4.023c0 1.006.063 5.092.314 7.669h-4.463Zm-.44-8.926h-2.2c-3.583 0-5.594 1.069-5.594 3.332 0 1.509 1.194 2.389 3.206 2.389 2.263 0 4.589-1.571 4.589-5.532Z" data-name="Path 716"></path>
      <path fill="#020203" d="M90.769 134.205v-28.287h5.029v28.287Z" data-name="Path 717"></path>
      <path fill="#020203" d="M127.919 134.205v-11.566h-10.561v11.566h-5.28v-26.338h5.28v10.686h10.56V107.93h5.28v26.337h-5.28Z" data-name="Path 718"></path>
      <path fill="#020203" d="M147.782 134.707c-6.286 0-10.12-4.274-10.12-10.057 0-6.223 4.212-10.309 10.12-10.309s10.183 4.023 10.183 10.309c-.003 5.783-3.897 10.057-10.183 10.057Zm4.9-10.686c0-3.08-1.634-5.783-4.9-5.783-3.143 0-4.84 2.7-4.84 5.783 0 4.086 1.571 6.726 4.84 6.726s4.903-2.514 4.903-6.726Z" data-name="Path 719"></path>
      <path fill="#020203" d="M161.168 129.678a10.78 10.78 0 0 0 4.966 1.257c1.383 0 3.332-.5 3.332-2.389 0-1.634-1.572-2.137-3.646-2.7-3.394-.88-5.154-2.326-5.154-5.532 0-3.9 3.269-6.035 7.669-6.035a21.849 21.849 0 0 1 5.469.691l-.314 3.834a11.825 11.825 0 0 0-4.463-.817c-1.76 0-3.017.691-3.017 2.137 0 1.069 1.069 1.634 3.332 2.263 3.646 1.006 5.406 2.64 5.406 5.909 0 4.274-3.646 6.349-8.172 6.349a22.849 22.849 0 0 1-5.72-.817Z" data-name="Path 720"></path>
      <path fill="#020203" d="M178.646 142.125v-27.344h4.84v2.766h.063a6.543 6.543 0 0 1 6.034-3.206c5.657 0 8.172 4.337 8.172 10.12 0 5.72-2.451 10.246-8.235 10.246a6.649 6.649 0 0 1-5.72-2.7h-.063v10.12Zm13.829-17.663c0-2.7-.943-6.16-4.212-6.16s-4.526 3.52-4.526 6.16c0 2.892 1.194 6.286 4.463 6.286s4.275-3.521 4.275-6.287Z" data-name="Path 721"></path>
      <path fill="#020203" d="M201.841 111.261v-4.84h5.029v4.84Zm0 22.944v-19.424h5.029v19.423Z" data-name="Path 722"></path>
      <path fill="#020203" d="M223.716 134.205a12.761 12.761 0 0 1-3.709.44c-4.086 0-6.16-2.577-6.16-6.286v-9.869h-3.709v-3.709h3.709v-3.9l5.029-1.634v5.532h4.462v3.709h-4.463v8.989c0 2.012.629 3.269 2.389 3.269a4.64 4.64 0 0 0 2.263-.5Z" data-name="Path 723"></path>
      <path fill="#020203" d="M238.677 134.204c-.126-.691-.189-2.011-.251-2.892h-.063a6.884 6.884 0 0 1-5.972 3.332c-3.52 0-6.789-2.137-6.789-5.783 0-3.332 1.949-6.663 9.492-6.663h3.143v-.063c0-3.269-1.634-4.086-4.4-4.086a9.9 9.9 0 0 0-5.972 2.137l-.126-4.337a17.589 17.589 0 0 1 6.726-1.446c5.783 0 8.36 2.326 8.36 8.172v4.023c0 1.006.063 5.092.314 7.669h-4.463Zm-.44-8.926h-2.2c-3.583 0-5.594 1.069-5.594 3.332 0 1.509 1.194 2.389 3.206 2.389 2.263 0 4.589-1.571 4.589-5.532Z" data-name="Path 724"></path>
      <path fill="#020203" d="M247.917 134.205v-28.287h5.029v28.287Z" data-name="Path 725"></path>
      <path fill="#1c5faa" d="m10.183 165.635-6.726-13.138h-.063v13.138H0v-17.538h4.337L11 161.235h.063v-13.138h3.394v17.538Z" data-name="Path 726"></path>
      <path fill="#1c5faa" d="M28.978 165.635v-7.669h-7.04v7.669h-3.52v-17.538h3.52v7.1h7.04v-7.1h3.52v17.538Z" data-name="Path 727"></path>
      <path fill="#1c5faa" d="M36.584 162.114a8.324 8.324 0 0 0 3.96 1.069c1.257 0 3.143-.629 3.143-2.263 0-1.32-1.194-1.886-2.892-2.577-2.326-.88-4.777-1.886-4.777-5.154 0-3.772 2.829-5.343 6.16-5.343a12.491 12.491 0 0 1 4.149.629l-.314 2.892a9.17 9.17 0 0 0-3.583-.754c-1.32 0-2.766.629-2.766 2.452 0 1.32 1.509 1.823 2.954 2.389 2.389.88 4.714 1.949 4.714 5.217 0 3.394-2.389 5.28-6.6 5.28a15.056 15.056 0 0 1-4.463-.691Z" data-name="Path 728"></path>
      <path fill="#1c5faa" d="M57.516 165.635v-17.538h9.743v2.766h-6.223v4.334h5.909v2.766h-5.909v7.669Z" data-name="Path 729"></path>
      <path fill="#1c5faa" d="M75.746 165.949a6.757 6.757 0 1 1 6.789-6.663 6.435 6.435 0 0 1-6.789 6.663Zm3.269-7.1c0-2.074-1.131-3.834-3.269-3.834s-3.269 1.823-3.269 3.834c0 2.766 1.069 4.463 3.269 4.463s3.268-1.638 3.268-4.466Z" data-name="Path 730"></path>
      <path fill="#1c5faa" d="M93.848 165.634v-1.76h-.063a5.514 5.514 0 0 1-4.274 2.074c-2.892 0-4.4-1.949-4.4-5.092v-8.171h3.394v7.417c0 2.577.943 3.269 2.2 3.269 2.012 0 2.954-1.886 2.954-4.4v-6.286h3.394v12.949Z" data-name="Path 731"></path>
      <path fill="#1c5faa" d="M109.061 165.634v-7.292c0-1.949-.377-3.394-2.2-3.394-2.137 0-2.954 2.074-2.954 4.337v6.286h-3.395v-12.949h3.206v1.76h.063a4.85 4.85 0 0 1 4.274-2.074c2.954 0 4.4 2.012 4.4 5.092v8.172h-3.394Z" data-name="Path 732"></path>
      <path fill="#1c5faa" d="M124.524 165.634v-1.446h-.063a4.8 4.8 0 0 1-3.96 1.76c-3.96 0-5.406-3.206-5.406-6.789 0-3.9 1.7-6.726 5.406-6.726a4.577 4.577 0 0 1 3.9 1.823h.063v-7.417h3.394v18.858h-3.332Zm-.126-6.474c0-1.823-.88-4.149-3.017-4.149-2.012 0-2.766 2.137-2.766 4.149 0 1.823.629 4.212 2.829 4.212 2.137-.001 2.951-2.327 2.951-4.213Z" data-name="Path 733"></path>
      <path fill="#1c5faa" d="M139.107 165.634a9.838 9.838 0 0 1-.126-1.949h-.063a4.645 4.645 0 0 1-4.023 2.263c-2.326 0-4.526-1.383-4.526-3.9 0-2.263 1.257-4.4 6.349-4.4h2.074v-.063c0-2.137-1.131-2.766-2.892-2.766a7.058 7.058 0 0 0-4.023 1.383l-.126-2.892a11.4 11.4 0 0 1 4.526-1.006c3.9 0 5.594 1.572 5.594 5.469v2.64c0 .691.063 3.394.189 5.154h-2.954Zm-.314-5.972h-1.509c-2.389 0-3.709.691-3.709 2.263 0 1.006.754 1.572 2.137 1.572 1.509 0 3.08-1.006 3.08-3.646Z" data-name="Path 734"></path>
      <path fill="#1c5faa" d="M152.874 165.635a9.294 9.294 0 0 1-2.452.314c-2.766 0-4.149-1.7-4.149-4.212v-6.6h-2.514v-2.451h2.514v-2.577l3.394-1.069v3.646h3.017v2.454h-3.017v6.034c0 1.383.44 2.137 1.634 2.137a2.828 2.828 0 0 0 1.509-.377Z" data-name="Path 735"></path>
      <path fill="#1c5faa" d="M155.074 150.36v-3.206h3.394v3.206Zm0 15.275v-12.949h3.394v12.949Z" data-name="Path 736"></path>
      <path fill="#1c5faa" d="M167.897 165.949a6.757 6.757 0 1 1 6.789-6.663 6.368 6.368 0 0 1-6.789 6.663Zm3.269-7.1c0-2.074-1.131-3.834-3.269-3.834s-3.269 1.823-3.269 3.834c0 2.766 1.069 4.463 3.269 4.463s3.269-1.638 3.269-4.466Z" data-name="Path 737"></path>
      <path fill="#1c5faa" d="M185.875 165.634v-7.292c0-1.949-.377-3.394-2.2-3.394-2.137 0-2.954 2.074-2.954 4.337v6.286h-3.395v-12.949h3.206v1.76h.063a4.849 4.849 0 0 1 4.274-2.074c2.954 0 4.4 2.012 4.4 5.092v8.172h-3.394Z" data-name="Path 738"></path>
      <path fill="#1c5faa" d="M203.161 165.635v-14.772h-5.029v-2.766h13.578v2.766h-5.029v14.772Z" data-name="Path 739"></path>
      <path fill="#1c5faa" d="M211.458 165.634v-12.949h3.017v2.954h.063a3.956 3.956 0 0 1 3.583-3.269 2.184 2.184 0 0 1 1.006.126v3.394a3.265 3.265 0 0 0-1.509-.251c-1.257 0-2.766.691-2.766 4.714v5.343h-3.394Z" data-name="Path 740"></path>
      <path fill="#1c5faa" d="M229.813 165.634v-1.76h-.063a5.514 5.514 0 0 1-4.274 2.074c-2.892 0-4.4-1.949-4.4-5.092v-8.171h3.394v7.417c0 2.577.943 3.269 2.2 3.269 2.012 0 2.954-1.886 2.954-4.4v-6.286h3.394v12.949Z" data-name="Path 741"></path>
      <path fill="#1c5faa" d="M236.036 162.617a7.733 7.733 0 0 0 3.331.88c.88 0 2.2-.377 2.2-1.571 0-1.069-1.069-1.383-2.389-1.76-2.263-.629-3.457-1.509-3.457-3.709 0-2.64 2.2-4.023 5.092-4.023a15.453 15.453 0 0 1 3.646.5l-.251 2.514a8.8 8.8 0 0 0-3.017-.566c-1.194 0-2.011.5-2.011 1.446 0 .754.691 1.069 2.263 1.509 2.389.691 3.646 1.76 3.646 3.9 0 2.829-2.452 4.212-5.469 4.212a15.2 15.2 0 0 1-3.772-.566Z" data-name="Path 742"></path>
      <path fill="#1c5faa" d="M255.334 165.635a9.294 9.294 0 0 1-2.452.314c-2.766 0-4.149-1.7-4.149-4.212v-6.6h-2.514v-2.451h2.514v-2.577l3.394-1.069v3.646h3.017v2.454h-3.017v6.034c0 1.383.44 2.137 1.634 2.137a2.828 2.828 0 0 0 1.509-.377Z" data-name="Path 743"></path>
    </g>
  </g>
</svg>
